HIERARCHY
ROOT RootJoint
{
    OFFSET   0.000000   0.000000   0.000000
    CHANNELS 6 Xposition Yposition Zposition Xrotation Yrotation Zrotation
    JOINT pelvis_lowerback
    {
        OFFSET   0.000000   0.093605   0.000000
        CHANNELS 3 Xrotation Yrotation Zrotation
        JOINT lowerback_torso
        {
            OFFSET   0.000000   0.100000   0.000000
            CHANNELS 3 Xrotation Yrotation Zrotation
            JOINT torso_head
            {
                OFFSET   0.000000   0.282350   0.000000
                CHANNELS 3 Xrotation Yrotation Zrotation
                End Site
                {
                    OFFSET   0.000000   0.192650   0.000000
                }
            }
            JOINT rTorso_Clavicle
            {
                OFFSET  -0.001000   0.157500   0.000000
                CHANNELS 3 Xrotation Yrotation Zrotation
                JOINT rShoulder
                {
                    OFFSET  -0.117647   0.000000   0.000000
                    CHANNELS 3 Xrotation Yrotation Zrotation
                    JOINT rElbow
                    {
                        OFFSET  -0.245000   0.000000   0.000000
                        CHANNELS 3 Xrotation Yrotation Zrotation
                        JOINT rWrist
                        {
                            OFFSET  -0.240000   0.000000   0.000000
                            CHANNELS 3 Xrotation Yrotation Zrotation
                            End Site
                            {
                                OFFSET  -0.116353  -0.002500   0.000000
                            }
                        }
                    }
                }
            }
            JOINT lTorso_Clavicle
            {
                OFFSET   0.001000   0.157500   0.000000
                CHANNELS 3 Xrotation Yrotation Zrotation
                JOINT lShoulder
                {
                    OFFSET   0.117647   0.000000   0.000000
                    CHANNELS 3 Xrotation Yrotation Zrotation
                    JOINT lElbow
                    {
                        OFFSET   0.245000   0.000000   0.000000
                        CHANNELS 3 Xrotation Yrotation Zrotation
                        JOINT lWrist
                        {
                            OFFSET   0.240000   0.000000   0.000000
                            CHANNELS 3 Xrotation Yrotation Zrotation
                            End Site
                            {
                                OFFSET   0.116353  -0.002500   0.000000
                            }
                        }
                    }
                }
            }
        }
    }
    JOINT rHip
    {
        OFFSET  -0.100000  -0.051395   0.000000
        CHANNELS 3 Xrotation Yrotation Zrotation
        JOINT rKnee
        {
            OFFSET   0.000000  -0.410000   0.000000
            CHANNELS 3 Xrotation Yrotation Zrotation
            JOINT rAnkle
            {
                OFFSET   0.000000  -0.390000   0.000000
                CHANNELS 3 Xrotation Yrotation Zrotation
                JOINT rToeJoint
                {
                    OFFSET   0.000000  -0.050000   0.130000
                    CHANNELS 3 Xrotation Yrotation Zrotation
                    End Site
                    {
                        OFFSET  -0.010000   0.002000   0.060000
                    }
                }
            }
        }
    }
    JOINT lHip
    {
        OFFSET   0.100000  -0.051395   0.000000
        CHANNELS 3 Xrotation Yrotation Zrotation
        JOINT lKnee
        {
            OFFSET   0.000000  -0.410000   0.000000
            CHANNELS 3 Xrotation Yrotation Zrotation
            JOINT lAnkle
            {
                OFFSET   0.000000  -0.390000   0.000000
                CHANNELS 3 Xrotation Yrotation Zrotation
                JOINT lToeJoint
                {
                    OFFSET   0.000000  -0.050000   0.130000
                    CHANNELS 3 Xrotation Yrotation Zrotation
                    End Site
                    {
                        OFFSET   0.010000   0.002000   0.060000
                    }
                }
            }
        }
    }
}
MOTION
Frames: 15
Frame Time:   0.008333
 -2.376719   0.925631   3.975860   0.000000   0.000000   0.000000   0.000000   0.000000   0.000000   0.000000   0.000000   0.000000   0.000000   0.000000   0.000000   0.000000   0.000000   0.000000   0.000000   0.000000   0.000000   0.000000   0.000000   0.000000   0.000000   0.000000   0.000000   0.000000   0.000000   0.000000   0.000000   0.000000   0.000000   0.000000   0.000000   0.000000   0.000000   0.000000   0.000000   0.000000   0.000000   0.000000   0.000000   0.000000   0.000000   0.000000   0.000000   0.000000   0.000000   0.000000   0.000000   0.000000   0.000000   0.000000   0.000000   0.000000   0.000000   0.000000   0.000000   0.000000   0.000000   0.000000   0.000000
 -2.376163   0.925745   3.975682   0.202995  -0.225438   0.277545  -0.393430   0.022591  -0.275147   0.250707   0.020430   0.017757   0.102274   0.346357   0.130100   0.211716  -0.844753  -0.323073   0.798963  -0.258021   2.400883   0.070419   3.774114  -0.036789   0.232238  -0.842390  -2.380626  -0.069116   0.551050   0.392781   0.152118   0.488764  -2.448473   0.064578  -3.621880   0.005970   0.147605   1.028073   2.187803  -1.527002  -0.025835  -0.275593   2.799628  -0.000126  -0.006317  -1.287242   0.356807   0.426390  -0.101727   0.000376  -0.000086  -0.580216  -0.084976  -0.513337   2.705834   0.005420  -0.007544  -3.757010   0.037063   0.285283  -0.155039   0.000050   0.000359
 -2.375408   0.925923   3.976186   0.256829  -0.446973   0.578209  -0.820379  -0.032738  -0.527847   0.528311  -0.019616   0.025159   0.259698   0.681792   0.263499   0.411355  -1.722069  -0.096516   1.588247  -0.482887   5.238064   0.167614   7.638615  -0.060012   0.529414  -0.770501  -4.196964  -0.126773   1.090021   0.178939   0.303450   0.900550  -5.215534   0.147301  -7.340749   0.006081   0.313843   1.177959   3.645792  -3.144952  -0.054441  -0.515553   5.673596  -0.002215  -0.011785  -2.471988   0.682847   0.832831  -0.163060   0.000550  -0.000096  -0.680523  -0.179891  -1.193795   5.807419   0.013639  -0.015716  -7.275321   0.047286   0.549816  -0.475620  -0.000335   0.001095
 -2.374607   0.925819   3.977189   0.281207  -0.616794   0.853880  -1.314697  -0.165252  -0.741970   0.738653  -0.133415   0.037759   0.408657   0.994127   0.392952   0.601582  -2.590933   0.492383   2.375630  -0.707717   8.360385   0.270693  11.495771  -0.070198   0.824600  -0.556472  -5.361168  -0.167294   1.575242  -0.431427   0.460999   1.261148  -8.108280   0.229740 -11.071587   0.001603   0.470539   1.110233   4.394101  -4.861534  -0.081035  -0.667189   8.337477  -0.005574  -0.014379  -3.577890   0.978571   1.218921  -0.211516   0.000656  -0.000105  -0.407992  -0.277011  -1.952725   8.923756   0.022333  -0.021961 -10.548271   0.038516   0.793206  -0.743150  -0.000870   0.001448
 -2.373810   0.925174   3.978495   0.304527  -0.716354   1.095663  -1.857313  -0.373501  -0.922451   0.876643  -0.323298   0.068289   0.536795   1.284995   0.513402   0.796908  -3.460861   1.343465   3.148069  -0.927632  11.581344   0.366599  15.333125  -0.070393   1.092765  -0.401855  -5.959678  -0.186339   2.012098  -1.288929   0.629818   1.578473 -11.023991   0.303045 -14.804378  -0.004520   0.607650   0.999164   4.622724  -6.676049  -0.106241  -0.732247  10.765746  -0.009165  -0.014248  -4.614308   1.247473   1.585226  -0.263660   0.000771  -0.000138   0.156625  -0.380416  -2.755186  11.956740   0.030642  -0.025957 -13.597084   0.015824   1.016459  -0.974596  -0.001407   0.001518
 -2.373028   0.923787   3.979941   0.329054  -0.745737   1.304278  -2.423771  -0.652468  -1.072719   0.961394  -0.585799   0.121958   0.645116   1.556151   0.623743   1.009224  -4.334549   2.373617   3.896971  -1.136767  14.764751   0.448000  19.148133  -0.063605   1.325521  -0.355511  -6.121665  -0.182670   2.404829  -2.291113   0.810942   1.855589 -13.895665   0.363367 -18.536523  -0.009921   0.724999   0.890249   4.497159  -8.574318  -0.131363  -0.725998  12.971452  -0.012298  -0.012209  -5.586035   1.492315   1.932217  -0.319692   0.000890  -0.000198   0.953101  -0.494420  -3.581429  14.883635   0.038243  -0.028180 -16.438783  -0.017160   1.220977  -1.180053  -0.001889   0.001409
 -2.372267   0.921511   3.981402   0.352963  -0.714492   1.483728  -2.993675  -0.993383  -1.197213   1.012562  -0.912399   0.195864   0.736871   1.808937   0.726048   1.243877  -5.203155   3.501751   4.625697  -1.330414  17.858961   0.511423  22.918925  -0.052458   1.526285  -0.407869  -5.990929  -0.158639   2.751899  -3.364026   1.001742   2.091259 -16.677716   0.409942 -22.268847  -0.013064   0.826661   0.788436   4.144805 -10.539716  -0.157596  -0.665407  14.972084  -0.014660  -0.009132  -6.496906   1.715396   2.260414  -0.377401   0.000994  -0.000277   1.933226  -0.622476  -4.417343  17.696192   0.044913  -0.029249 -19.088077  -0.057684   1.408305  -1.364635  -0.002289   0.001206
 -2.372412   0.917782   3.982002   0.425235  -0.958267   1.122681  -3.265959  -1.228461  -0.901653   1.015063  -1.193645   0.462337   0.565557   1.800274   0.549026   1.540303  -5.937233   3.952859   5.441305  -1.347341  20.738428   0.537321  26.668108  -0.054555   1.639012  -0.574010  -4.908265  -0.090559   3.187246  -3.612479   1.236381   2.001027 -19.759292   0.432194 -25.982622  -0.001550   0.783195   0.821543   3.162126 -12.936755  -0.326451   0.109099  17.407824  -0.021921  -0.011512  -7.598356   1.840701   2.517421  -0.133854  -0.000592  -0.000491   3.765689  -0.737184  -4.447104  17.428777   0.035424  -0.022269 -20.481464   0.008810   1.480883  -1.189115  -0.001312   0.000728
 -2.372968   0.912735   3.981582   0.546287  -1.007257   0.678262  -3.366206  -1.577499  -0.623032   1.083331  -1.550357   0.752497   0.388842   1.778535   0.378963   1.808030  -6.575407   4.166439   6.186457  -1.301117  23.282917   0.539356  30.429932  -0.060549   1.757767  -0.713714  -3.933766  -0.052574   3.478902  -3.599220   1.417737   1.820855 -22.479023   0.438200 -29.729290   0.018017   0.754431   0.745010   2.304069 -15.464767  -0.564744   0.962892  19.672310  -0.026975  -0.008568  -8.628742   1.950653   2.759631   0.071828  -0.001649  -0.000240   5.485299  -0.881163  -4.224777  16.776450   0.027466  -0.016434 -21.792708   0.072360   1.551720  -0.973977  -0.000716   0.000562
 -2.373694   0.906501   3.980475   0.661801  -0.925224   0.248324  -3.323438  -1.974904  -0.400248   1.236093  -1.952108   1.012599   0.238155   1.756983   0.217093   2.043956  -7.140018   4.224478   6.861179  -1.211579  25.552745   0.527050  34.203293  -0.068739   1.884355  -0.794799  -3.196125  -0.055208   3.652508  -3.418356   1.539117   1.575350 -24.891797   0.436407 -33.504320   0.042023   0.747996   0.529592   1.707194 -17.999359  -0.823584   1.756892  21.726243  -0.029151  -0.003115  -9.593349   2.049642   2.987049   0.256579  -0.002303   0.000224   7.086923  -1.012099  -3.899290  16.084679   0.021347  -0.012665 -23.020473   0.133228   1.619507  -0.778147  -0.000456   0.000621
 -2.374520   0.900114   3.979321   0.876352  -0.474149  -0.363067  -3.318455  -2.504366  -0.058532   1.409393  -2.461266   1.307351   0.118434   1.733333   0.066979   2.274885  -7.706572   4.207080   7.490233  -1.136207  27.597093   0.508052  37.962870  -0.076668   2.011999  -0.903741  -2.673967  -0.089919   3.736993  -3.215786   1.614233   1.284961 -27.101196   0.432746 -37.302844   0.063735   0.760203   0.188954   1.284436 -20.091615  -0.952592   2.401554  24.861042  -0.023390   0.015865 -10.005735   2.193049   3.096947   0.311906  -0.001967   0.000519   8.491996  -1.144110  -3.270385  15.389643   0.016293  -0.011662 -24.165602   0.190954   1.683226  -0.584711  -0.000433   0.001170
 -2.375526   0.893784   3.977673   1.231066  -0.186933  -1.034946  -3.296564  -2.923729   0.271629   1.559807  -2.896732   1.619515   0.002125   1.715697  -0.063989   2.473045  -8.193905   4.164217   8.057511  -1.018014  29.477029   0.484267  41.620752  -0.084721   2.141180  -0.946345  -2.268487  -0.139590   3.791559  -2.976393   1.658877   0.993287 -29.120805   0.431520 -41.108736   0.087679   0.776779  -0.199214   0.993519 -22.018500  -1.203928   3.098104  27.649679  -0.018726   0.023338 -10.535600   2.272024   3.299616   0.497754  -0.002116   0.001111   9.691048  -1.223531  -2.576512  14.682897   0.012613  -0.010100 -25.234218   0.248680   1.746785  -0.396260  -0.000419   0.001343
 -2.376598   0.887552   3.975500   1.657056  -0.089120  -1.707427  -3.210794  -3.253261   0.562838   1.719544  -3.245587   1.912843  -0.105455   1.700934  -0.185817   2.627491  -8.583883   4.099678   8.555741  -0.844416  31.210087   0.455471  45.058354  -0.092218   2.273164  -0.857557  -1.936075  -0.198573   3.826531  -2.707405   1.679774   0.709716 -30.970549   0.435634 -44.917425   0.116153   0.795906  -0.594900   0.800404 -23.892098  -1.495154   3.805968  30.108373  -0.015450   0.024118 -11.090253   2.336963   3.502436   0.672391  -0.002188   0.001268  10.751354  -1.282442  -1.916820  13.996629   0.009931  -0.007748 -26.231744   0.302018   1.809353  -0.219891  -0.000341   0.001157
 -2.378132   0.880984   3.972283   2.192967   0.216527  -2.643349  -2.622315  -3.892027   1.073810   1.429835  -3.585484   2.236688  -0.435746   1.718074  -0.236663   2.695051  -8.914460   3.832244   8.938214  -0.575774  32.461249   0.413392  48.748927  -0.097027   2.283185  -0.969486  -1.159313  -0.275952   3.888424  -2.167327   2.069639   0.413735 -32.448882   0.442431 -48.757182   0.166371   0.779002  -0.998100   0.268222 -25.776890  -1.932865   4.746316  32.282236  -0.012376   0.028228 -11.612315   2.168719   3.683812   0.762891  -0.002008   0.001208  11.336173  -1.137609  -0.733204  13.535528   0.008422  -0.007494 -22.535704   0.992852   1.786616  -0.519210   0.000406  -0.001230
 -2.378983   0.879041   3.970474   2.603669   0.101745  -2.687536  -2.136962  -4.325510   0.916796   1.160092  -3.763130   2.243783  -0.728734   1.735173  -0.302849   2.721186  -9.171106   3.725715   9.255388  -0.279775  33.625986   0.371652  52.196027  -0.091406   2.312330  -0.996590  -0.556332  -0.303944   4.043487  -1.767110   2.469787   0.215127 -33.785669   0.453810 -52.383204   0.206675   0.785410  -1.167903  -0.152550 -27.161257  -2.076657   4.853418  33.810120  -0.010774   0.021901 -12.229902   2.037990   3.804015   0.909525  -0.001880   0.000693  11.658948  -1.168986  -0.709773  11.965477   0.007112  -0.004070 -23.205464   1.033968   2.597331  -0.599358   0.000848  -0.000963
